<svg width="82" height="83" viewBox="0 0 82 83" fill="none" xmlns="http://www.w3.org/2000/svg">
<path d="M0.93396 16.4579C6.15485 11.2889 11.3412 6.08528 16.5275 0.881674C17.1498 0.259316 17.7895 0 18.6712 0C32.121 0 45.5709 0 59.0035 0C62.5474 0 65.1752 1.88436 66.0914 5.13446C66.2989 5.87783 66.3334 6.67307 66.3507 7.45101C66.3853 10.4245 66.368 13.398 66.3507 16.3542C66.3507 16.8901 66.5236 17.1494 67.0077 17.3915C75.1675 21.4368 80.2328 27.9543 81.6331 36.9266C83.1544 46.6942 79.9216 54.9231 72.3669 61.3196C70.7591 62.6853 68.8229 63.6534 66.9904 64.7426C66.5409 65.0192 66.3335 65.2439 66.3335 65.7971C66.3507 69.0299 66.2816 72.28 66.368 75.5128C66.4718 79.2815 63.9823 82.3242 60.4556 82.8601C60.4038 82.8601 60.3692 82.912 60.3346 82.9465H6.05113C4.75455 82.6008 3.47526 82.1859 2.43799 81.2696C1.03768 80.0249 0.225166 78.5036 0.0695724 76.6365C0.034996 76.187 0.0177078 75.7203 0.0177078 75.2535C0.0177078 56.4099 0.0177155 37.549 0.000427246 18.7053C0.000427246 17.7891 0.277023 17.1149 0.93396 16.4579ZM16.5794 5.16903C12.8106 8.93776 8.97276 12.7756 5.18674 16.5616C8.40226 16.5616 11.7907 16.5789 15.1963 16.5444C16.078 16.5444 16.5794 15.9912 16.5794 15.0749C16.5966 11.7211 16.5794 8.34997 16.5794 5.16903ZM79.1955 41.0929C79.1609 27.9715 68.5463 17.4779 55.6669 17.5816C42.5801 17.6854 32.1902 28.0753 32.2248 41.1967C32.2593 54.197 42.9431 64.7253 55.7188 64.587C68.5809 64.5524 79.2301 54.2316 79.1955 41.0929ZM34.0227 56.8939C30.3058 60.6108 26.5717 64.3277 22.8721 68.0618C21.126 69.8079 20.9532 72.0726 22.3708 73.8186C23.7365 75.4782 26.2432 75.8067 27.9893 74.5447C28.2486 74.3545 28.5079 74.1471 28.7326 73.9223C32.4668 70.2055 36.1836 66.4886 39.9178 62.7718C40.0215 62.6507 40.1252 62.547 40.1598 62.5124C38.189 60.5416 36.2874 58.64 34.3339 56.6865C34.2993 56.6692 34.1437 56.7729 34.0227 56.8939ZM2.78374 20.2785C2.78374 38.6899 2.78374 57.1187 2.78374 75.5301C2.78374 78.5727 4.42609 80.2151 7.5033 80.2151C24.6182 80.2151 41.7503 80.1978 58.8651 80.2324C61.5966 80.2324 63.7403 78.4863 63.6193 75.461C63.5155 72.4702 63.5847 69.4621 63.5847 66.4713C63.5847 66.4195 63.5501 66.3676 63.5328 66.2466C62.3746 66.4886 61.199 66.7825 60.0234 66.9727C54.2148 67.9235 48.6827 67.0418 43.4791 64.2931C42.8567 63.9646 42.5282 64.0165 42.0615 64.5005C38.1026 68.494 34.1437 72.4702 30.1329 76.4118C28.1103 78.3999 25.0676 78.9012 22.5436 77.7602C18.1871 75.7894 17.0288 70.1536 20.3654 66.7134C24.2032 62.7545 28.1276 58.8993 32.0173 55.0096C32.899 54.1279 32.8471 54.1452 32.3285 53.0215C27.7818 43.3749 28.4733 34.1087 34.6796 25.4303C38.5521 20.0019 43.9631 16.7172 50.4806 15.3688C54.5951 14.5217 58.6923 14.7119 62.7376 15.7837C62.9969 15.8529 63.2389 15.9047 63.5847 15.9912V10.632C63.5847 9.38724 63.602 8.14252 63.5674 6.91509C63.4983 4.54667 61.8214 2.88705 59.4529 2.76604C59.2628 2.76604 59.0726 2.76604 58.8824 2.76604H19.3108V3.665C19.3108 7.36457 19.3108 11.0641 19.3108 14.7637C19.3108 17.6681 17.6685 19.345 14.7641 19.3623C11.1164 19.3795 7.46872 19.3623 3.82101 19.3623H2.74918V20.2785H2.78374Z" fill="#685582"/>
<path d="M31.8102 19.345H34.4033C33.5389 19.345 32.6745 19.3623 31.8102 19.345C31.4298 19.345 31.0495 19.345 30.6692 19.345C31.0495 19.3623 31.4298 19.345 31.8102 19.345Z" fill="#685582"/>
<path d="M24.9124 9.78484C24.9643 10.4418 25.3446 10.8913 26.0188 11.0123C26.33 11.0641 26.6585 11.0641 26.987 11.0641C31.8275 11.0641 36.6508 11.0641 41.4914 11.0641C46.2974 11.0641 51.1033 11.0641 55.9093 11.0641C56.1859 11.0641 56.4453 11.0641 56.7219 11.0468C57.4998 10.9777 58.0184 10.4936 58.0703 9.78484C58.1222 9.09333 57.6554 8.50555 56.912 8.34996C56.6527 8.2981 56.3761 8.2981 56.0995 8.2981C46.3492 8.2981 36.6162 8.2981 26.8659 8.2981C26.5202 8.2981 26.1571 8.31538 25.8287 8.41911C25.1717 8.60928 24.8778 9.12791 24.9124 9.78484Z" fill="#685582"/>
<path d="M8.31488 26.2946C8.33216 27.2281 9.00639 27.6603 10.3894 27.6603H29.6652C29.89 27.6603 30.0974 27.6776 30.3222 27.6603C31.2211 27.5739 31.8089 27.0034 31.7916 26.2427C31.7743 25.4648 31.2038 24.9289 30.2703 24.8943C28.7663 24.8597 27.2449 24.877 25.7409 24.877C20.6065 24.877 15.4893 24.877 10.3548 24.877C8.95452 24.8943 8.29759 25.3438 8.31488 26.2946Z" fill="#685582"/>
<path d="M8.31664 51.2235C8.31664 51.9323 8.85256 52.4509 9.61322 52.5201C10.0108 52.5546 10.4257 52.5374 10.8234 52.5374C13.4165 52.5374 16.0097 52.5374 18.6028 52.5374C21.4035 52.5374 24.2214 52.5374 27.022 52.5374C27.3159 52.5374 27.627 52.5546 27.9036 52.4855C28.5779 52.3645 28.9582 51.915 29.0101 51.2581C29.0619 50.6011 28.7507 50.0998 28.1111 49.8923C27.7826 49.7886 27.4196 49.754 27.0738 49.754C21.4553 49.754 15.8541 49.754 10.2356 49.754C9.95897 49.754 9.69966 49.7713 9.44034 49.8232C8.71426 49.9961 8.31664 50.4628 8.31664 51.2235Z" fill="#685582"/>
<path d="M8.3149 42.8736C8.3149 43.5651 8.85082 44.1356 9.5769 44.2221C9.78436 44.2394 10.0091 44.2394 10.2165 44.2394C15.3856 44.2394 20.5719 44.2394 25.7409 44.2394C25.8965 44.2394 26.0694 44.2394 26.225 44.2394C27.0721 44.1702 27.6253 43.6343 27.608 42.8563C27.608 42.113 27.0721 41.577 26.2769 41.4906C26.0002 41.4733 25.7409 41.4733 25.4643 41.4733H10.2511C10.0091 41.4733 9.76707 41.456 9.52504 41.4906C8.81624 41.6116 8.29761 42.1994 8.3149 42.8736Z" fill="#685582"/>
<path d="M9.12794 35.8029C9.43912 35.9239 9.80216 35.9585 10.1479 35.9585C15.3515 35.9758 20.5551 35.9585 25.7587 35.9585C25.9489 35.9585 26.1391 35.9585 26.3292 35.9412C27.1763 35.8202 27.6604 35.2497 27.6085 34.4718C27.5567 33.7284 27.038 33.2443 26.1909 33.2271C24.8944 33.1925 23.5978 33.2098 22.3012 33.2098H17.8582C15.2478 33.2098 12.6201 33.1925 10.0096 33.2271C9.54284 33.2271 8.97235 33.4172 8.64388 33.7284C8.00424 34.3508 8.28084 35.4572 9.12794 35.8029Z" fill="#685582"/>
<path d="M5.5325 72.2971C5.5325 72.591 5.5325 72.9022 5.5325 73.1961C5.58436 75.6163 7.2094 77.3451 9.6124 77.4316C11.4103 77.5007 13.2255 77.4661 15.0408 77.4316C15.9916 77.4143 16.5966 76.8092 16.5621 75.9967C16.5275 75.2014 15.957 74.6828 15.0235 74.6828C13.3984 74.6655 11.7907 74.6828 10.1656 74.6828C8.74801 74.6828 8.29853 74.1987 8.28125 72.7812C8.28125 71.1907 8.28125 69.6002 8.28125 68.0097C8.28125 67.2664 8.02193 66.6786 7.24398 66.4538C6.36231 66.2118 5.60165 66.7996 5.51521 67.7677C5.51521 67.8196 5.51521 67.8714 5.51521 67.9233C5.51521 68.5457 5.51521 69.1853 5.51521 69.8077C5.51521 70.1188 5.51521 70.43 5.51521 70.7585C5.5325 71.2771 5.5325 71.7785 5.5325 72.2971Z" fill="#685582"/>
<path d="M8.33374 59.5043C8.35103 60.1958 8.74865 60.7144 9.45744 60.7663C10.391 60.8527 11.3418 60.8181 12.2926 60.8354C13.5028 60.8354 14.7302 60.8354 15.9403 60.8354C17.9457 60.8354 19.9338 60.8527 21.9392 60.8354C23.132 60.8181 23.8927 59.8327 23.3395 58.9338C23.0975 58.5361 22.4924 58.225 21.991 58.1212C21.3168 57.9829 20.5907 58.0867 19.8992 58.0867C16.7356 58.0867 13.5892 58.0867 10.4256 58.0867C10.0798 58.0867 9.71676 58.1039 9.38829 58.1731C8.66221 58.3114 8.29916 58.8127 8.33374 59.5043Z" fill="#685582"/>
<path d="M24.8952 17.9619C24.8952 18.7917 25.5003 19.3276 26.5549 19.3449C27.9206 19.3622 29.3036 19.3622 30.6693 19.3449C31.0497 19.3449 31.43 19.3449 31.8103 19.3449C32.6747 19.3449 33.5391 19.3449 34.4035 19.3449C35.2679 19.3449 36.1323 19.3449 36.9967 19.3449C37.6882 19.3449 38.2932 19.1893 38.5871 18.4805C38.9156 17.7026 38.4834 16.8555 37.6363 16.6653C37.3597 16.5961 37.0485 16.5789 36.7546 16.5789C33.4354 16.5789 30.1161 16.5789 26.7969 16.5789C26.7105 16.5789 26.6413 16.5789 26.5549 16.5789C25.5349 16.6307 24.9125 17.1494 24.8952 17.9619Z" fill="#685582"/>
<path d="M34.9913 40.4878C35.216 29.6484 44.6551 20.3821 55.4945 20.3648C67.0081 20.3303 76.4645 29.4582 76.4472 41.2138C76.43 52.5546 67.0427 61.9073 55.8057 61.8208C44.0327 61.8381 34.7665 52.1916 34.9913 40.4878ZM55.7711 59.0548C65.6943 59.0029 73.6985 50.9468 73.6466 41.0928C73.5948 31.1351 65.556 23.0963 55.7365 23.1655C45.6059 23.2346 37.74 31.187 37.7919 41.283C37.8265 51.1197 45.9171 59.1067 55.7711 59.0548Z" fill="#685582"/>
<path d="M44.2739 41.4904C44.2739 42.1647 44.6197 42.6141 45.2766 42.787C45.6051 42.8735 45.9681 42.8735 46.3139 42.8735C49.5467 42.8735 52.7968 42.8735 56.0296 42.8735C59.2105 42.8735 62.3915 42.8735 65.5897 42.8735C65.8317 42.8735 66.0738 42.8735 66.3158 42.8562C67.1802 42.7697 67.7334 42.2338 67.7334 41.4904C67.7334 40.7471 67.1802 40.2111 66.3158 40.1247C66.0738 40.1074 65.8317 40.1074 65.5897 40.1074C59.1933 40.1074 52.7968 40.1074 46.4003 40.1074C46.02 40.1074 45.6397 40.1074 45.2766 40.1939C44.6197 40.3495 44.2739 40.8162 44.2739 41.4904Z" fill="#685582"/>
<path d="M49.8068 33.2097C49.8241 34.0568 50.4119 34.5408 51.4837 34.5581C52.9877 34.5754 54.509 34.5581 56.0131 34.5581C57.5171 34.5581 59.0384 34.5754 60.5425 34.5581C61.597 34.5408 62.2021 34.0395 62.2194 33.2097C62.2367 32.3798 61.6143 31.8094 60.577 31.8094C57.5344 31.7921 54.4745 31.7921 51.4318 31.8094C50.4119 31.8094 49.7895 32.3798 49.8068 33.2097Z" fill="#685582"/>
<path d="M49.8069 49.7542C49.7897 50.584 50.412 51.1545 51.432 51.1718C54.4746 51.1891 57.5346 51.1891 60.5772 51.1718C61.8219 51.1718 62.548 50.2037 62.0985 49.2183C61.8219 48.6132 61.286 48.4058 60.6291 48.4058C59.0905 48.4058 57.5518 48.4058 56.0132 48.4058C54.5092 48.4058 52.9879 48.3885 51.4839 48.4058C50.412 48.423 49.8242 48.9071 49.8069 49.7542Z" fill="#685582"/>
</svg>
