<svg width="92" height="83" viewBox="0 0 92 83" fill="none" xmlns="http://www.w3.org/2000/svg">
<path d="M91.9999 40.829V41.907C91.461 42.6706 90.7198 42.8278 89.8215 42.8278C69.8337 42.8053 49.8235 42.8053 29.8357 42.8053H29.656C28.3534 42.8053 27.6797 42.2888 27.6797 41.368C27.6797 40.4247 28.3759 39.9307 29.656 39.9307C49.7785 39.9307 69.8786 39.9307 90.0012 39.9082C90.8546 39.9082 91.5059 40.1777 91.9999 40.829Z" fill="#685582"/>
<path d="M91.9999 10.1061V11.0044C91.6182 11.8578 90.9219 12.0824 90.0236 12.0824C69.9011 12.0599 49.7785 12.0824 29.6785 12.0599C29.3865 12.0599 29.0721 12.0599 28.7801 11.9926C28.1064 11.8129 27.7021 11.3413 27.6797 10.6226C27.6797 9.8815 28.1064 9.38742 28.8251 9.23022C29.1395 9.16284 29.4763 9.1853 29.8132 9.1853C49.8235 9.1853 69.8112 9.1853 89.799 9.16284C90.7198 9.1853 91.4834 9.34251 91.9999 10.1061Z" fill="#685582"/>
<path d="M91.9995 71.7314V72.6298C91.4605 73.3933 90.7194 73.5505 89.8211 73.5505C69.8333 73.5281 49.823 73.5281 29.8352 73.5281C29.723 73.5281 29.5882 73.5281 29.4759 73.5281C28.353 73.5056 27.6793 72.9666 27.7017 72.0683C27.7242 71.17 28.3755 70.6534 29.5208 70.6534C49.7332 70.6534 69.9456 70.6534 90.1355 70.6534C91.0114 70.6534 91.6402 70.9454 91.9995 71.7314Z" fill="#685582"/>
<path d="M21.3465 47.4766C21.3465 48.1503 21.369 48.869 21.2567 49.5427C21.0321 50.9801 19.9541 51.9907 18.4943 52.0131C13.284 52.0356 8.07372 52.0581 2.86342 52.0131C1.29135 52.0131 0.0561455 50.8004 0.0336873 49.2283C-0.0112291 44.018 -0.0112291 38.8077 0.0336873 33.5974C0.0561455 31.958 1.3138 30.7902 3.02063 30.7677C6.50165 30.7452 9.96021 30.7452 13.4412 30.7677C14.5417 30.7677 15.1481 31.3067 15.1481 32.1826C15.1481 33.0809 14.5417 33.6423 13.4637 33.6423C10.3195 33.6648 7.17539 33.6423 4.03125 33.6423H2.93079V49.116H18.382V38.9874C18.2922 38.92 18.2248 38.8751 18.135 38.8077C17.6185 39.3916 17.1468 39.998 16.6078 40.537C15.0807 42.0866 13.5311 43.6362 11.9814 45.1859C10.9708 46.174 10.3195 46.174 9.30892 45.1859C8.00635 43.9057 6.72623 42.6032 5.42365 41.323C4.50287 40.4023 4.39058 39.5713 5.01941 38.8976C5.67069 38.2238 6.5241 38.3361 7.42243 39.2569C8.47797 40.3124 9.51104 41.368 10.6115 42.4909C12.6327 40.4696 14.5866 38.5158 16.518 36.5844C17.1917 35.9106 17.888 35.2369 18.5392 34.5407C19.0558 34.0017 19.6397 33.6648 20.3808 33.9792C21.1219 34.2936 21.3016 34.9449 21.3016 35.686C21.3465 39.5713 21.3465 43.5239 21.3465 47.4766Z" fill="#685582"/>
<path d="M21.346 17.7869C21.346 20.1899 20.2231 21.2904 17.8201 21.2904C13.059 21.2904 8.29781 21.2904 3.53668 21.2904C1.13365 21.2904 0.0107422 20.1675 0.0107422 17.7869C0.0107422 13.0257 0.0107422 8.26461 0.0107422 3.50348C0.0107422 1.12291 1.13365 0 3.53668 0C6.7482 0 9.93726 0 13.1488 0C13.4407 0 13.7552 0 14.0471 0.0449164C14.6984 0.179666 15.0802 0.606371 15.1476 1.28012C15.2149 1.95386 14.923 2.4704 14.2941 2.69498C13.9124 2.82973 13.4857 2.85219 13.0589 2.85219C10.0271 2.87465 7.0177 2.85219 3.98584 2.85219H2.95276V18.3034H18.404V8.10741C18.1345 8.35445 17.9324 8.51165 17.7527 8.66886C15.8662 10.5553 13.9797 12.4418 12.0932 14.3283C10.9703 15.4512 10.364 15.4512 9.2186 14.3059C7.84865 12.9359 6.45624 11.566 5.10875 10.1736C4.47992 9.49981 4.50238 8.6464 5.08629 8.08495C5.64775 7.54595 6.43378 7.56841 7.10753 8.15232C7.35457 8.3769 7.57915 8.60149 7.80373 8.84853C8.72452 9.79177 9.62285 10.735 10.611 11.7456C13.2611 9.07311 15.7764 6.55779 18.2917 4.04247C18.5387 3.79543 18.7858 3.52594 19.1002 3.32381C19.8862 2.78482 20.9193 3.1666 21.2113 4.06493C21.3236 4.40181 21.3236 4.76114 21.3236 5.12047C21.346 9.34261 21.3685 13.5647 21.346 17.7869Z" fill="#685582"/>
<path d="M21.346 64.949C21.346 62.5909 20.2231 61.468 17.8875 61.468C15.4844 61.468 13.1039 61.468 10.7008 61.468C8.27536 61.468 5.84987 61.468 3.42439 61.468C1.15611 61.468 0.0107422 62.6134 0.0107422 64.8817C0.0107422 69.6653 0.0107422 74.4713 0.0107422 79.2549C0.0107422 81.613 1.13365 82.7359 3.44685 82.7359C8.2529 82.7359 13.0814 82.7359 17.9099 82.7359C20.2007 82.7359 21.346 81.5906 21.346 79.2998C21.3685 74.5162 21.3685 69.7326 21.346 64.949ZM18.404 79.7939H2.95277V64.3876H18.404V79.7939Z" fill="#685582"/>
<path d="M76.5936 3.05425C76.5487 3.86275 76.0546 4.28945 75.2686 4.35683C74.9766 4.37929 74.6622 4.37929 74.3703 4.37929H52.204C44.7479 4.37929 37.2918 4.37929 29.8581 4.37929C28.3984 4.37929 27.7021 3.93012 27.7021 2.94196C27.7021 1.97626 28.4208 1.50464 29.8806 1.50464C44.7479 1.50464 59.6152 1.50464 74.4826 1.50464C74.797 1.50464 75.1338 1.50464 75.4707 1.57201C76.2343 1.75168 76.6385 2.26822 76.5936 3.05425Z" fill="#685582"/>
<path d="M76.5936 33.7772C76.5487 34.5632 76.0546 35.0124 75.2686 35.0797C74.9766 35.1022 74.6622 35.1022 74.3703 35.1022H52.1142C44.703 35.1022 37.2693 35.1022 29.8581 35.1022C28.3984 35.1022 27.7021 34.653 27.7021 33.6649C27.7021 32.6992 28.4208 32.2275 29.8581 32.2275C44.7255 32.2275 59.5928 32.2275 74.4826 32.2275C74.797 32.2275 75.1338 32.2275 75.4707 32.2949C76.2343 32.4746 76.6385 32.9911 76.5936 33.7772Z" fill="#685582"/>
<path d="M76.5938 64.5224C76.5489 65.2411 76.1222 65.6678 75.426 65.7801C75.0666 65.8474 74.7073 65.825 74.348 65.825C66.9592 65.825 59.5705 65.825 52.1817 65.825H30.1053C29.8583 65.825 29.6337 65.825 29.3867 65.825C28.3536 65.8025 27.7472 65.286 27.7023 64.455C27.6574 63.6016 28.3311 62.9952 29.3418 62.9503C29.5214 62.9503 29.7011 62.9503 29.8808 62.9503C44.7256 62.9503 59.5705 62.9503 74.4153 62.9503C74.842 62.9503 75.2688 62.9728 75.6505 63.0851C76.3467 63.2872 76.6387 63.8262 76.5938 64.5224Z" fill="#685582"/>
<path d="M58.1782 18.2809C58.2007 18.9546 57.8413 19.4936 57.1451 19.6733C56.8532 19.7407 56.5612 19.7856 56.2693 19.7856C47.3983 19.7856 38.5497 19.7856 29.6788 19.7856C29.4093 19.7856 29.1398 19.7631 28.8703 19.7182C28.0842 19.5386 27.6575 19.0445 27.7024 18.2584C27.7474 17.4724 28.2414 17.0008 29.0275 16.9334C29.544 16.9109 30.0381 16.9109 30.5546 16.9109C34.6869 16.9109 38.8192 16.9109 42.9515 16.9109C47.286 16.9109 51.6429 16.9109 55.9773 16.9109C56.3142 16.9109 56.651 16.8885 56.9655 16.9559C57.729 17.0457 58.1557 17.5622 58.1782 18.2809Z" fill="#685582"/>
<path d="M58.178 49.0263C58.2005 49.745 57.7962 50.284 57.0551 50.4412C56.7631 50.5086 56.4712 50.531 56.1568 50.531C47.3532 50.531 38.5496 50.531 29.7459 50.531C29.454 50.531 29.1396 50.531 28.8476 50.4636C28.0616 50.284 27.6349 49.7674 27.7022 48.9814C27.7696 48.1954 28.2412 47.7237 29.0497 47.6788C29.5214 47.6339 30.0154 47.6564 30.4871 47.6564C34.6418 47.6564 38.8191 47.6564 42.9738 47.6564C47.3082 47.6564 51.6651 47.6564 55.9996 47.6564C56.2915 47.6564 56.6059 47.6564 56.8979 47.6788C57.7064 47.7462 58.1556 48.2403 58.178 49.0263Z" fill="#685582"/>
<path d="M58.1555 79.7266C58.0881 80.2207 57.6165 80.7147 57.2123 81.0741C56.9877 81.2762 56.5161 81.2313 56.1792 81.2313C47.3531 81.2313 38.5271 81.2313 29.6785 81.2313C29.3641 81.2313 29.0272 81.2088 28.7128 81.119C28.0166 80.9169 27.6798 80.4003 27.7247 79.7041C27.7696 79.0079 28.1738 78.5363 28.8925 78.4015C29.2069 78.3342 29.5438 78.3566 29.8807 78.3566C34.2825 78.3566 38.6843 78.3566 43.0861 78.3566C47.4205 78.3566 51.7549 78.3566 56.1118 78.3566C56.4487 78.3566 56.7856 78.3342 57.1 78.4015C57.7513 78.5587 58.2453 79.0753 58.1555 79.7266Z" fill="#685582"/>
</svg>
